{"title":"Wonder of the solar system 5-5 Aliens","uid":6643438,"size":782579712,"categoryP":"video","categoryS":"tv_shows","magnet":"?xt=urn:btih:3772d45814b455a20426e89d25077de3303c1184&amp;dn=Wonder+of+the+solar+system+5-5+Aliens&amp;tr=udp%3A%2F%2Ftracker.openbittorrent.com%3A80&amp;tr=udp%3A%2F%2Fopen.demonii.com%3A1337&amp;tr=udp%3A%2F%2Ftracker.coppersurfer.tk%3A6969&amp;tr=udp%3A%2F%2Fexodus.desync.com%3A6969","seeders":3,"leechers":0,"uploader":"stu181","files":1,"time":1314841816,"description":"Wonder of the solar system 5-5 Aliens\n\nBrought to you by the Pro Torrent Team  &lt;a href=&quot; http://www.protorrent.co.uk&quot; rel=&quot;nofollow&quot; target=&quot;_NEW&quot;&gt; http://www.protorrent.co.uk&lt;/a&gt;\n\nProfessor Brian Cox explores how the search for aliens in the solar system has followed the search for water. He looks at Jupiters moon Europa - a dazzling ball of ice.\n\nFormat                           : AVI\nFormat/Info                      : Audio Video Interleave\nFile size                        : 746 MiB\nDuration                         : 59mn 8s\nOverall bit rate                 : 1 764 Kbps\nWriting application              : VirtualDubMod 1.5.4.1 (build 2178/release)\nWriting library                  : VirtualDubMod build 2178/release\n\nVideo\nID                               : 0\nFormat                           : MPEG-4 Visual\nFormat profile                   : Advanced Simple@L5\nFormat settings, BVOP            : 1\nFormat settings, QPel            : No\nFormat settings, GMC             : No warppoints\nFormat settings, Matrix          : Custom\nCodec ID                         : XVID\nCodec ID/Hint                    : XviD\nDuration                         : 59mn 8s\nBit rate                         : 1 566 Kbps\nWidth                            : 704 pixels\nHeight                           : 400 pixels\nDisplay aspect ratio             : 16:9\nFrame rate                       : 25.000 fps\nColor space                      : YUV\nChroma subsampling               : 4:2:0\nBit depth                        : 8 bits\nScan type                        : Progressive\nCompression mode                 : Lossy\nBits/(Pixel*Frame)               : 0.222\nStream size                      : 662 MiB (89%)\nWriting library                  : XviD 1.2.1 (UTC 2008-12-04)\n\nAudio\nID                               : 1\nFormat                           : AC-3\nFormat/Info                      : Audio Coding 3\nMode extension                   : CM (complete main)\nCodec ID                         : 2000\nDuration                         : 59mn 7s\nBit rate mode                    : Constant\nBit rate                         : 192 Kbps\nChannel(s)                       : 2 channels\nChannel positions                : Front: L R\nSampling rate                    : 48.0 KHz\nBit depth                        : 16 bits\nCompression mode                 : Lossy\nStream size                      : 81.2 MiB (11%)\nAlignment                        : Split accross interleaves\nInterleave, duration             : 96 ms (2.40 video frames)\nInterleave, preload duration     : 96 ms\n\n","torrent":{"xt":"urn:btih:3772d45814b455a20426e89d25077de3303c1184","amp;dn":"Wonder+of+the+solar+system+5-5+Aliens","amp;tr":["udp%3A%2F%2Ftracker.openbittorrent.com%3A80","udp%3A%2F%2Fopen.demonii.com%3A1337","udp%3A%2F%2Ftracker.coppersurfer.tk%3A6969","udp%3A%2F%2Fexodus.desync.com%3A6969"],"infoHash":"3772d45814b455a20426e89d25077de3303c1184","infoHashBuffer":{"type":"Buffer","data":[55,114,212,88,20,180,85,162,4,38,232,157,37,7,125,227,48,60,17,132]},"announce":[],"urlList":[]}}